<svg width="120" height="63" viewBox="0 0 120 63" fill="none" xmlns="http://www.w3.org/2000/svg">
<path d="M21.8096 54.1268V61.4084" stroke="#FAFAFA" stroke-width="2.64787" stroke-linecap="round"/>
<path d="M21.2775 2.49338L15.8844 11.1577C15.7208 11.4206 15.9098 11.7609 16.2195 11.7609H24.6207C25.0128 11.7609 25.165 12.2707 24.8371 12.4857L12.9094 20.304C12.5858 20.5162 12.729 21.019 13.1159 21.0287L27.5498 21.3915C27.9761 21.4022 28.0849 21.9875 27.691 22.1507L8.68845 30.0251C8.28949 30.1905 8.40769 30.7844 8.83954 30.7844H30.9715C31.4214 30.7844 31.5209 31.4164 31.0929 31.5547L6.15456 39.6131C5.72652 39.7514 5.82609 40.3834 6.27592 40.3834H34.1499C34.6124 40.3834 34.6977 41.0419 34.2505 41.1597L2.9457 49.4102C2.4985 49.528 2.58382 50.1865 3.04628 50.1865H38.3941" stroke="#FAFAFA" stroke-width="3.15222" stroke-linecap="round"/>
<path d="M54.7339 34.2655C54.2283 34.2655 53.8535 34.1696 53.6094 33.9778C53.3654 33.7861 53.2433 33.5246 53.2433 33.1933L53.4264 32.3303C53.2869 32.557 53.0516 32.8272 52.7203 33.141C52.3891 33.4374 51.9532 33.7076 51.4128 33.9517C50.8723 34.1783 50.2185 34.2917 49.4515 34.2917C48.6321 34.2917 47.8562 34.126 47.124 33.7948C46.4092 33.4461 45.7729 32.9754 45.215 32.3826C44.6746 31.7725 44.2387 31.0838 43.9075 30.3167C43.5937 29.5322 43.4367 28.6954 43.4367 27.8062C43.4367 26.952 43.5937 26.15 43.9075 25.4004C44.2387 24.6333 44.6833 23.9533 45.2412 23.3606C45.799 22.7678 46.4354 22.3058 47.1502 21.9746C47.8824 21.6259 48.6495 21.4516 49.4515 21.4516C50.1662 21.4516 50.7677 21.5475 51.2559 21.7392C51.7614 21.931 52.1886 22.1751 52.5373 22.4715C52.8859 22.7504 53.1736 23.0468 53.4002 23.3606L53.2433 22.6022C53.2433 22.2187 53.3654 21.931 53.6094 21.7392C53.8535 21.53 54.2371 21.4254 54.7601 21.4254C55.2482 21.4254 55.5969 21.5039 55.8061 21.6608C56.0153 21.8002 56.1461 22.0007 56.1984 22.2622C56.2507 22.5063 56.2768 22.7853 56.2768 23.0991V32.6703C56.2768 32.9667 56.2507 33.2369 56.1984 33.481C56.1461 33.7251 56.0066 33.9168 55.78 34.0563C55.5708 34.1958 55.2221 34.2655 54.7339 34.2655ZM49.9222 31.232C50.5149 31.232 51.0467 31.0838 51.5174 30.7874C51.9881 30.4911 52.3629 30.0901 52.6419 29.5845C52.9382 29.0615 53.0864 28.4862 53.0864 27.8585C53.0864 27.1786 52.9382 26.5859 52.6419 26.0803C52.3455 25.5747 51.9532 25.1824 51.4651 24.9035C50.9944 24.6071 50.4626 24.4589 49.8699 24.4589C49.2248 24.4589 48.6495 24.6158 48.1439 24.9296C47.6383 25.226 47.2373 25.6357 46.941 26.1587C46.662 26.6643 46.5226 27.2396 46.5226 27.8847C46.5226 28.5123 46.6707 29.0789 46.9671 29.5845C47.2635 30.0901 47.6645 30.4911 48.1701 30.7874C48.6931 31.0838 49.2771 31.232 49.9222 31.232ZM69.1519 31.4935C69.6051 31.8771 69.8405 32.2345 69.8579 32.5657C69.8928 32.8969 69.7185 33.2805 69.3349 33.7163C69.0385 34.0476 68.777 34.2655 68.5504 34.3701C68.3237 34.4747 68.0971 34.4747 67.8705 34.3701C67.6438 34.2829 67.3736 34.1086 67.0598 33.8471L62.065 29.6368V32.7488C62.065 33.0277 62.0301 33.2892 61.9604 33.5333C61.9081 33.7774 61.7686 33.9691 61.5419 34.1086C61.3327 34.2481 60.9841 34.3178 60.4959 34.3178C60.0078 34.3178 59.6504 34.2394 59.4237 34.0825C59.2145 33.943 59.0838 33.7512 59.0315 33.5071C58.9792 33.2631 58.953 33.0015 58.953 32.7226V17.1105C58.953 16.8141 58.9792 16.5526 59.0315 16.326C59.1012 16.0819 59.2407 15.8901 59.4499 15.7507C59.6765 15.5938 60.0339 15.5153 60.5221 15.5153C61.0102 15.5153 61.3589 15.5938 61.5681 15.7507C61.7773 15.8901 61.9081 16.0819 61.9604 16.326C62.0301 16.5526 62.065 16.8229 62.065 17.1367V25.7142L65.6738 22.2099C65.9527 21.9484 66.2142 21.7741 66.4583 21.6869C66.7024 21.5823 66.9378 21.5736 67.1644 21.6608C67.4085 21.7305 67.6613 21.9136 67.9228 22.2099C68.3586 22.6807 68.5678 23.0729 68.5504 23.3867C68.533 23.6831 68.315 24.0405 67.8966 24.4589L64.3662 27.7278L69.1519 31.4935ZM77.6127 34.3701C76.7759 34.3701 75.9565 34.2306 75.1545 33.9517C74.37 33.6553 73.6552 33.2282 73.0101 32.6703C72.3825 32.1124 71.8769 31.4325 71.4934 30.6305C71.1273 29.8111 70.9442 28.8871 70.9442 27.8585C70.9442 26.8299 71.1273 25.9147 71.4934 25.1127C71.8769 24.3107 72.3825 23.6308 73.0101 23.0729C73.6378 22.515 74.3438 22.0879 75.1284 21.7915C75.9129 21.4952 76.7236 21.347 77.5604 21.347C78.1706 21.347 78.7459 21.4341 79.2863 21.6085C79.8442 21.7828 80.3237 21.992 80.7246 22.2361C81.1256 22.4802 81.4133 22.7242 81.5876 22.9683C81.8143 23.1775 82.006 23.378 82.1629 23.5698C82.3199 23.7616 82.3722 23.9969 82.3199 24.2759C82.2676 24.4502 82.1891 24.6158 82.0845 24.7727C81.9799 24.9122 81.8491 25.0604 81.6922 25.2173C81.2738 25.688 80.8641 25.8624 80.4631 25.7403C80.2365 25.6183 80.0099 25.4875 79.7832 25.3481C79.5566 25.2086 79.3212 25.0778 79.0771 24.9558C78.8505 24.8163 78.6151 24.703 78.3711 24.6158C78.127 24.5287 77.8568 24.4851 77.5604 24.4851C76.8979 24.4851 76.3051 24.6333 75.7821 24.9296C75.2765 25.2086 74.8756 25.6008 74.5792 26.1064C74.3002 26.612 74.1608 27.1961 74.1608 27.8585C74.1608 28.521 74.3002 29.1138 74.5792 29.6368C74.8756 30.1424 75.2765 30.5434 75.7821 30.8397C76.2877 31.1187 76.863 31.2582 77.5081 31.2582C77.8219 31.2582 78.1183 31.2233 78.3972 31.1536C78.6936 31.0664 78.9551 30.9618 79.1817 30.8397C79.4084 30.7003 79.5914 30.5608 79.7309 30.4213C79.9227 30.2993 80.097 30.186 80.2539 30.0814C80.4108 29.9768 80.5765 29.9245 80.7508 29.9245C80.96 29.9245 81.1605 30.0029 81.3523 30.1598C81.5615 30.2993 81.7881 30.5259 82.0322 30.8397C82.2588 31.1013 82.3809 31.354 82.3983 31.5981C82.4332 31.8422 82.3809 32.0776 82.2414 32.3042C82.1194 32.5308 81.9102 32.74 81.6138 32.9318C81.4046 33.141 81.0908 33.3589 80.6723 33.5856C80.2714 33.7948 79.8007 33.9778 79.2602 34.1348C78.7372 34.2917 78.188 34.3701 77.6127 34.3701ZM77.1943 38.8158C76.7584 38.8158 76.34 38.7112 75.939 38.502C75.5381 38.3102 75.3201 38.0748 75.2853 37.7959C75.2678 37.5867 75.3376 37.3862 75.4945 37.1944C75.6688 37.0026 75.8083 36.8719 75.9129 36.8021C76.0175 36.7324 76.1221 36.6975 76.2267 36.6975C76.3662 36.6975 76.5144 36.7498 76.6713 36.8544C76.8456 36.9765 77.0287 37.0375 77.2204 37.0375C77.4296 37.0375 77.6301 36.9591 77.8219 36.8021C78.0137 36.6627 78.1096 36.4535 78.1096 36.1745C78.1096 35.8956 78.0137 35.6777 77.8219 35.5208C77.6301 35.3638 77.4296 35.2854 77.2204 35.2854C76.9764 35.2854 76.7759 35.3464 76.619 35.4684C76.4621 35.6079 76.3139 35.6777 76.1744 35.6777C76.0349 35.6777 75.9042 35.6254 75.7821 35.5208C75.6775 35.4161 75.5816 35.2854 75.4945 35.1285C75.4247 35.0065 75.3637 34.8931 75.3114 34.7885C75.2765 34.7014 75.2678 34.6229 75.2853 34.5532C75.3027 34.3614 75.4073 34.1871 75.5991 34.0302C75.8083 33.8732 76.0611 33.7512 76.3575 33.664C76.6538 33.5769 76.9415 33.5333 77.2204 33.5333C77.6388 33.5333 78.0485 33.6379 78.4495 33.8471C78.8679 34.0563 79.2079 34.3527 79.4694 34.7362C79.7483 35.1372 79.8878 35.6079 79.8878 36.1484C79.8878 36.654 79.7658 37.1072 79.5217 37.5082C79.2776 37.9092 78.9464 38.223 78.528 38.4497C78.127 38.6937 77.6824 38.8158 77.1943 38.8158ZM95.3393 34.2655C94.8337 34.2655 94.4589 34.1696 94.2148 33.9778C93.9708 33.7861 93.8487 33.5246 93.8487 33.1933L94.0318 32.3303C93.8923 32.557 93.6569 32.8272 93.3257 33.141C92.9945 33.4374 92.5586 33.7076 92.0182 33.9517C91.4777 34.1783 90.8239 34.2917 90.0568 34.2917C89.2374 34.2917 88.4616 34.126 87.7294 33.7948C87.0146 33.4461 86.3783 32.9754 85.8204 32.3826C85.2799 31.7725 84.8441 31.0838 84.5128 30.3167C84.199 29.5322 84.0421 28.6954 84.0421 27.8062C84.0421 26.952 84.199 26.15 84.5128 25.4004C84.8441 24.6333 85.2887 23.9533 85.8465 23.3606C86.4044 22.7678 87.0408 22.3058 87.7556 21.9746C88.4878 21.6259 89.2549 21.4516 90.0568 21.4516C90.7716 21.4516 91.3731 21.5475 91.8613 21.7392C92.3668 21.931 92.794 22.1751 93.1426 22.4715C93.4913 22.7504 93.779 23.0468 94.0056 23.3606L93.8487 22.6022C93.8487 22.2187 93.9708 21.931 94.2148 21.7392C94.4589 21.53 94.8425 21.4254 95.3655 21.4254C95.8536 21.4254 96.2023 21.5039 96.4115 21.6608C96.6207 21.8002 96.7515 22.0007 96.8038 22.2622C96.8561 22.5063 96.8822 22.7853 96.8822 23.0991V32.6703C96.8822 32.9667 96.8561 33.2369 96.8038 33.481C96.7515 33.7251 96.612 33.9168 96.3854 34.0563C96.1761 34.1958 95.8275 34.2655 95.3393 34.2655ZM90.5276 31.232C91.1203 31.232 91.652 31.0838 92.1228 30.7874C92.5935 30.4911 92.9683 30.0901 93.2472 29.5845C93.5436 29.0615 93.6918 28.4862 93.6918 27.8585C93.6918 27.1786 93.5436 26.5859 93.2472 26.0803C92.9509 25.5747 92.5586 25.1824 92.0705 24.9035C91.5997 24.6071 91.068 24.4589 90.4753 24.4589C89.8302 24.4589 89.2549 24.6158 88.7493 24.9296C88.2437 25.226 87.8427 25.6357 87.5464 26.1587C87.2674 26.6643 87.1279 27.2396 87.1279 27.8847C87.1279 28.5123 87.2761 29.0789 87.5725 29.5845C87.8689 30.0901 88.2699 30.4911 88.7754 30.7874C89.2985 31.0838 89.8825 31.232 90.5276 31.232ZM101.023 34.2917C100.552 34.2917 100.203 34.2219 99.9768 34.0825C99.7676 33.943 99.6368 33.7512 99.5845 33.5071C99.5322 33.2631 99.5061 33.0015 99.5061 32.7226V22.9422C99.5061 22.6632 99.5322 22.4104 99.5845 22.1838C99.6368 21.9572 99.7763 21.7741 100.003 21.6346C100.23 21.4952 100.587 21.4254 101.075 21.4254C101.581 21.4254 101.947 21.53 102.173 21.7392C102.418 21.9484 102.54 22.2797 102.54 22.733L102.304 23.4652C102.391 23.2734 102.54 23.0642 102.749 22.8376C102.958 22.6109 103.211 22.3843 103.507 22.1576C103.821 21.931 104.17 21.7479 104.553 21.6085C104.937 21.469 105.338 21.3993 105.756 21.3993C106.331 21.3993 106.854 21.4952 107.325 21.6869C107.813 21.8787 108.24 22.1576 108.607 22.5238C108.99 22.8899 109.321 23.3344 109.6 23.8575C109.897 23.4042 110.228 22.9945 110.594 22.6284C110.96 22.2448 111.387 21.9484 111.875 21.7392C112.364 21.5126 112.913 21.3993 113.523 21.3993C114.534 21.3993 115.38 21.6521 116.06 22.1576C116.757 22.6632 117.28 23.3867 117.629 24.3282C117.995 25.2522 118.178 26.3592 118.178 27.6493V32.7226C118.178 33.019 118.143 33.2892 118.073 33.5333C118.021 33.7599 117.881 33.943 117.655 34.0825C117.446 34.2219 117.097 34.2917 116.609 34.2917C116.121 34.2917 115.763 34.2132 115.537 34.0563C115.31 33.9168 115.17 33.7338 115.118 33.5071C115.066 33.2631 115.04 32.9928 115.04 32.6965V27.6232C115.04 26.9781 114.961 26.4202 114.804 25.9495C114.647 25.4788 114.412 25.1127 114.098 24.8512C113.802 24.5897 113.41 24.4589 112.922 24.4589C112.398 24.4589 111.945 24.5897 111.562 24.8512C111.196 25.0953 110.908 25.4527 110.699 25.9234C110.489 26.3941 110.385 26.9694 110.385 27.6493V32.7488C110.385 33.0451 110.341 33.3241 110.254 33.5856C110.167 33.8297 109.993 34.0127 109.731 34.1348C109.487 34.2742 109.13 34.3265 108.659 34.2917C108.223 34.2742 107.901 34.1871 107.691 34.0302C107.5 33.8732 107.378 33.6815 107.325 33.4548C107.29 33.2108 107.273 32.958 107.273 32.6965V27.6232C107.273 26.9781 107.194 26.4202 107.038 25.9495C106.881 25.4614 106.645 25.0953 106.331 24.8512C106.035 24.5897 105.634 24.4589 105.129 24.4589C104.588 24.4589 104.126 24.5984 103.743 24.8773C103.376 25.1563 103.097 25.5311 102.906 26.0018C102.714 26.4725 102.618 27.013 102.618 27.6232V32.7488C102.618 33.0277 102.583 33.2892 102.513 33.5333C102.461 33.7774 102.322 33.9604 102.095 34.0825C101.886 34.2219 101.528 34.2917 101.023 34.2917Z" fill="#FAFAFA"/>
<path d="M66.2603 50.613C65.7952 50.613 65.3639 50.495 64.9662 50.2591C64.5753 50.0165 64.2585 49.6896 64.0159 49.2785C63.78 48.8606 63.662 48.3922 63.662 47.8732C63.662 47.4149 63.7564 46.9768 63.9451 46.5589C64.1338 46.141 64.3899 45.7703 64.7135 45.4468C65.037 45.1165 65.4043 44.857 65.8155 44.6683C66.2333 44.4796 66.6681 44.3852 67.1196 44.3852C67.5577 44.3852 67.9621 44.4762 68.3328 44.6582C68.7035 44.8334 69.0136 45.0794 69.263 45.3962L70.4054 40.8265H71.4973L69.0709 50.5321H68.0599L68.2722 49.7233C68.0026 49.9929 67.6959 50.2086 67.3522 50.3703C67.0084 50.5321 66.6445 50.613 66.2603 50.613ZM66.5636 49.6222C66.968 49.6222 67.3454 49.511 67.6959 49.2886C68.0531 49.0594 68.343 48.7629 68.5654 48.3989C68.7878 48.0349 68.899 47.6474 68.899 47.2362C68.899 46.8992 68.8215 46.5926 68.6665 46.3162C68.5182 46.0332 68.3093 45.8074 68.0397 45.6389C67.7768 45.4636 67.4668 45.376 67.1095 45.376C66.7051 45.376 66.3243 45.4906 65.9671 45.7197C65.6166 45.9422 65.3302 46.2354 65.1078 46.5993C64.8853 46.9565 64.7741 47.3441 64.7741 47.762C64.7741 48.0922 64.8483 48.3989 64.9965 48.682C65.1516 48.9651 65.3639 49.1942 65.6335 49.3695C65.9031 49.538 66.2131 49.6222 66.5636 49.6222ZM74.2409 50.6534C73.6882 50.6534 73.1928 50.5321 72.7547 50.2895C72.3166 50.0468 71.9695 49.7166 71.7134 49.2987C71.464 48.8741 71.3393 48.3989 71.3393 47.8732C71.3393 47.4081 71.437 46.9633 71.6325 46.5387C71.828 46.114 72.0942 45.74 72.4312 45.4164C72.7749 45.0862 73.1692 44.8267 73.6141 44.638C74.0589 44.4425 74.5307 44.3448 75.0295 44.3448C75.6495 44.3448 76.1685 44.4897 76.5864 44.7795C77.0043 45.0626 77.2975 45.4333 77.466 45.8916C77.6345 46.3499 77.6547 46.8386 77.5266 47.3576L77.4154 47.8024H73.4523C73.2838 47.8024 73.1153 47.7957 72.9468 47.7822C72.785 47.7687 72.6199 47.7519 72.4514 47.7316C72.4581 48.2641 72.6334 48.7123 72.9771 49.0763C73.3209 49.4402 73.7724 49.6222 74.3319 49.6222C74.7565 49.6222 75.1474 49.5144 75.5046 49.2987C75.8686 49.083 76.155 48.8067 76.364 48.4697V49.9356C76.0674 50.158 75.7372 50.3333 75.3732 50.4613C75.016 50.5894 74.6385 50.6534 74.2409 50.6534ZM72.5121 46.9835C72.9097 46.9228 73.2973 46.8925 73.6747 46.8925H75.6866C75.8349 46.8925 75.9798 46.8992 76.1213 46.9127C76.2629 46.9195 76.4044 46.9296 76.546 46.9431C76.5662 46.4847 76.4179 46.1006 76.1011 45.7905C75.7911 45.4737 75.3698 45.3153 74.8374 45.3153C74.2982 45.3153 73.8163 45.4771 73.3916 45.8006C72.967 46.1174 72.6738 46.5117 72.5121 46.9835ZM82.3406 50.5321L80.2781 46.9532L82.9472 44.4661H84.312L81.552 47.0239L83.5841 50.5321H82.3406ZM78.1854 50.5321L80.6118 40.8265H81.7036L79.2772 50.5321H78.1854ZM87.1972 50.6534C86.6714 50.6534 86.1963 50.5321 85.7716 50.2895C85.347 50.0468 85.0067 49.7166 84.7505 49.2987C84.5012 48.8741 84.3765 48.3989 84.3765 47.8732C84.3765 47.4081 84.4708 46.9633 84.6595 46.5387C84.855 46.114 85.1179 45.74 85.4481 45.4164C85.7851 45.0862 86.1659 44.8267 86.5906 44.638C87.0219 44.4425 87.4735 44.3448 87.9453 44.3448C88.471 44.3448 88.9462 44.4661 89.3708 44.7087C89.7954 44.9514 90.1324 45.2816 90.3818 45.6995C90.6379 46.1174 90.766 46.5926 90.766 47.125C90.766 47.5901 90.6683 48.0349 90.4728 48.4596C90.2841 48.8842 90.0212 49.2616 89.6842 49.5919C89.354 49.9154 88.9731 50.1749 88.5418 50.3703C88.1172 50.5591 87.669 50.6534 87.1972 50.6534ZM87.3084 49.6222C87.7195 49.6222 88.1003 49.511 88.4508 49.2886C88.808 49.0662 89.0978 48.773 89.3203 48.409C89.5427 48.045 89.6539 47.6541 89.6539 47.2362C89.6539 46.724 89.4854 46.2859 89.1484 45.9219C88.8114 45.558 88.3733 45.376 87.8341 45.376C87.4297 45.376 87.0489 45.4872 86.6917 45.7096C86.3344 45.9321 86.0446 46.2252 85.8222 46.5892C85.5998 46.9532 85.4886 47.3441 85.4886 47.762C85.4886 48.2742 85.6571 48.7123 85.9941 49.0763C86.3378 49.4402 86.7759 49.6222 87.3084 49.6222ZM91.5211 50.5321L93.0376 44.4661H94.0486L93.7756 45.5782C94.0789 45.221 94.4328 44.9379 94.8372 44.729C95.2483 44.5133 95.6965 44.4054 96.1818 44.4054V45.4973C96.0605 45.4569 95.9156 45.4367 95.7471 45.4367C95.1944 45.4367 94.7024 45.6254 94.271 46.0028C93.8464 46.3735 93.5363 46.9397 93.3409 47.7013L92.613 50.5321H91.5211ZM99.0988 50.5321L101.525 40.8265H102.617L100.191 50.5321H99.0988ZM102.127 50.5321L103.644 44.4661H104.735L103.219 50.5321H102.127ZM104.564 43.3742C104.382 43.3742 104.227 43.3136 104.099 43.1922C103.977 43.0709 103.917 42.9193 103.917 42.7373C103.917 42.5216 103.997 42.3329 104.159 42.1711C104.328 42.0026 104.516 41.9184 104.725 41.9184C104.907 41.9184 105.059 41.979 105.18 42.1004C105.308 42.2217 105.372 42.3733 105.372 42.5553C105.372 42.771 105.292 42.9631 105.13 43.1316C104.968 43.2933 104.779 43.3742 104.564 43.3742ZM105.155 50.5321L106.672 44.4661H107.683L107.471 45.3255C107.76 44.9952 108.087 44.7492 108.451 44.5874C108.815 44.4257 109.183 44.3448 109.553 44.3448C110.099 44.3448 110.534 44.4796 110.857 44.7492C111.181 45.012 111.39 45.3625 111.484 45.8006C111.585 46.232 111.572 46.7038 111.444 47.216L110.615 50.5321H109.523L110.342 47.2362C110.477 46.697 110.45 46.232 110.261 45.8411C110.079 45.4501 109.718 45.2547 109.179 45.2547C108.755 45.2547 108.343 45.4097 107.946 45.7197C107.555 46.023 107.285 46.4645 107.137 47.0442L106.247 50.5321H105.155ZM115.67 50.6534C115.117 50.6534 114.622 50.5321 114.184 50.2895C113.745 50.0468 113.398 49.7166 113.142 49.2987C112.893 48.8741 112.768 48.3989 112.768 47.8732C112.768 47.4081 112.866 46.9633 113.061 46.5387C113.257 46.114 113.523 45.74 113.86 45.4164C114.204 45.0862 114.598 44.8267 115.043 44.638C115.488 44.4425 115.96 44.3448 116.458 44.3448C117.078 44.3448 117.597 44.4897 118.015 44.7795C118.433 45.0626 118.726 45.4333 118.895 45.8916C119.063 46.3499 119.084 46.8386 118.955 47.3576L118.844 47.8024H114.881C114.713 47.8024 114.544 47.7957 114.376 47.7822C114.214 47.7687 114.049 47.7519 113.88 47.7316C113.887 48.2641 114.062 48.7123 114.406 49.0763C114.75 49.4402 115.201 49.6222 115.761 49.6222C116.185 49.6222 116.576 49.5144 116.933 49.2987C117.297 49.083 117.584 48.8067 117.793 48.4697V49.9356C117.496 50.158 117.166 50.3333 116.802 50.4613C116.445 50.5894 116.067 50.6534 115.67 50.6534ZM113.941 46.9835C114.339 46.9228 114.726 46.8925 115.104 46.8925H117.115C117.264 46.8925 117.409 46.8992 117.55 46.9127C117.692 46.9195 117.833 46.9296 117.975 46.9431C117.995 46.4847 117.847 46.1006 117.53 45.7905C117.22 45.4737 116.799 45.3153 116.266 45.3153C115.727 45.3153 115.245 45.4771 114.821 45.8006C114.396 46.1174 114.103 46.5117 113.941 46.9835Z" fill="#FAFAFA"/>
</svg>
