<svg width="120" height="63" viewBox="0 0 120 63" fill="none" xmlns="http://www.w3.org/2000/svg">
<path d="M21.8096 54.1268V61.4084" stroke="#212121" stroke-width="2.64787" stroke-linecap="round"/>
<path d="M21.2775 2.49338L15.8844 11.1577C15.7208 11.4206 15.9098 11.7609 16.2195 11.7609H24.6207C25.0128 11.7609 25.165 12.2707 24.8371 12.4857L12.9094 20.304C12.5858 20.5162 12.729 21.019 13.1159 21.0287L27.5498 21.3915C27.9761 21.4022 28.0849 21.9874 27.691 22.1507L8.68845 30.0251C8.28949 30.1905 8.40769 30.7844 8.83954 30.7844H30.9715C31.4214 30.7844 31.5209 31.4164 31.0929 31.5547L6.15456 39.6131C5.72652 39.7514 5.82609 40.3834 6.27592 40.3834H34.1499C34.6124 40.3834 34.6977 41.0418 34.2505 41.1597L2.9457 49.4102C2.4985 49.528 2.58382 50.1865 3.04628 50.1865H38.3941" stroke="#212121" stroke-width="3.15222" stroke-linecap="round"/>
<path d="M54.7341 34.2655C54.2285 34.2655 53.8536 34.1696 53.6096 33.9778C53.3655 33.7861 53.2435 33.5246 53.2435 33.1933L53.4265 32.3303C53.287 32.557 53.0517 32.8272 52.7204 33.141C52.3892 33.4374 51.9533 33.7076 51.4129 33.9517C50.8724 34.1783 50.2187 34.2916 49.4516 34.2916C48.6322 34.2916 47.8564 34.126 47.1241 33.7948C46.4094 33.4461 45.773 32.9754 45.2151 32.3826C44.6747 31.7724 44.2388 31.0838 43.9076 30.3167C43.5938 29.5322 43.4369 28.6954 43.4369 27.8062C43.4369 26.952 43.5938 26.15 43.9076 25.4003C44.2388 24.6333 44.6834 23.9533 45.2413 23.3606C45.7992 22.7678 46.4355 22.3058 47.1503 21.9746C47.8825 21.6259 48.6496 21.4516 49.4516 21.4516C50.1664 21.4516 50.7678 21.5474 51.256 21.7392C51.7616 21.931 52.1887 22.1751 52.5374 22.4714C52.8861 22.7504 53.1737 23.0468 53.4004 23.3606L53.2435 22.6022C53.2435 22.2187 53.3655 21.931 53.6096 21.7392C53.8536 21.53 54.2372 21.4254 54.7602 21.4254C55.2484 21.4254 55.597 21.5039 55.8062 21.6608C56.0154 21.8002 56.1462 22.0007 56.1985 22.2622C56.2508 22.5063 56.277 22.7853 56.277 23.0991V32.6703C56.277 32.9667 56.2508 33.2369 56.1985 33.481C56.1462 33.725 56.0067 33.9168 55.7801 34.0563C55.5709 34.1958 55.2222 34.2655 54.7341 34.2655ZM49.9223 31.232C50.515 31.232 51.0468 31.0838 51.5175 30.7874C51.9882 30.4911 52.363 30.0901 52.642 29.5845C52.9384 29.0615 53.0865 28.4861 53.0865 27.8585C53.0865 27.1786 52.9384 26.5859 52.642 26.0803C52.3456 25.5747 51.9533 25.1824 51.4652 24.9035C50.9945 24.6071 50.4627 24.4589 49.87 24.4589C49.2249 24.4589 48.6496 24.6158 48.144 24.9296C47.6384 25.226 47.2375 25.6357 46.9411 26.1587C46.6621 26.6643 46.5227 27.2396 46.5227 27.8847C46.5227 28.5123 46.6709 29.0789 46.9672 29.5845C47.2636 30.0901 47.6646 30.4911 48.1702 30.7874C48.6932 31.0838 49.2772 31.232 49.9223 31.232ZM69.152 31.4935C69.6053 31.877 69.8406 32.2344 69.8581 32.5657C69.8929 32.8969 69.7186 33.2805 69.335 33.7163C69.0387 34.0476 68.7772 34.2655 68.5505 34.3701C68.3239 34.4747 68.0972 34.4747 67.8706 34.3701C67.6439 34.2829 67.3737 34.1086 67.0599 33.8471L62.0651 29.6368V32.7487C62.0651 33.0277 62.0302 33.2892 61.9605 33.5333C61.9082 33.7773 61.7687 33.9691 61.5421 34.1086C61.3329 34.2481 60.9842 34.3178 60.496 34.3178C60.0079 34.3178 59.6505 34.2393 59.4238 34.0824C59.2146 33.943 59.0839 33.7512 59.0316 33.5071C58.9793 33.263 58.9531 33.0015 58.9531 32.7226V17.1105C58.9531 16.8141 58.9793 16.5526 59.0316 16.326C59.1013 16.0819 59.2408 15.8901 59.45 15.7507C59.6766 15.5938 60.034 15.5153 60.5222 15.5153C61.0103 15.5153 61.359 15.5938 61.5682 15.7507C61.7774 15.8901 61.9082 16.0819 61.9605 16.326C62.0302 16.5526 62.0651 16.8229 62.0651 17.1367V25.7142L65.6739 22.2099C65.9529 21.9484 66.2144 21.7741 66.4584 21.6869C66.7025 21.5823 66.9379 21.5736 67.1645 21.6608C67.4086 21.7305 67.6614 21.9136 67.9229 22.2099C68.3587 22.6807 68.5679 23.0729 68.5505 23.3867C68.5331 23.6831 68.3152 24.0405 67.8967 24.4589L64.3664 27.7278L69.152 31.4935ZM77.6128 34.3701C76.776 34.3701 75.9566 34.2306 75.1546 33.9517C74.3701 33.6553 73.6553 33.2282 73.0103 32.6703C72.3826 32.1124 71.8771 31.4325 71.4935 30.6305C71.1274 29.8111 70.9443 28.8871 70.9443 27.8585C70.9443 26.8299 71.1274 25.9146 71.4935 25.1127C71.8771 24.3107 72.3826 23.6308 73.0103 23.0729C73.6379 22.515 74.344 22.0879 75.1285 21.7915C75.913 21.4951 76.7237 21.347 77.5605 21.347C78.1707 21.347 78.746 21.4341 79.2865 21.6085C79.8444 21.7828 80.3238 21.992 80.7248 22.2361C81.1258 22.4802 81.4134 22.7242 81.5878 22.9683C81.8144 23.1775 82.0062 23.378 82.1631 23.5698C82.32 23.7616 82.3723 23.9969 82.32 24.2759C82.2677 24.4502 82.1892 24.6158 82.0846 24.7727C81.98 24.9122 81.8493 25.0604 81.6924 25.2173C81.2739 25.688 80.8642 25.8623 80.4633 25.7403C80.2366 25.6183 80.01 25.4875 79.7833 25.348C79.5567 25.2086 79.3213 25.0778 79.0773 24.9558C78.8506 24.8163 78.6153 24.703 78.3712 24.6158C78.1271 24.5286 77.8569 24.4851 77.5605 24.4851C76.898 24.4851 76.3053 24.6333 75.7823 24.9296C75.2767 25.2086 74.8757 25.6008 74.5793 26.1064C74.3004 26.612 74.1609 27.196 74.1609 27.8585C74.1609 28.521 74.3004 29.1138 74.5793 29.6368C74.8757 30.1424 75.2767 30.5434 75.7823 30.8397C76.2878 31.1187 76.8632 31.2581 77.5082 31.2581C77.822 31.2581 78.1184 31.2233 78.3973 31.1535C78.6937 31.0664 78.9552 30.9618 79.1819 30.8397C79.4085 30.7003 79.5916 30.5608 79.731 30.4213C79.9228 30.2993 80.0972 30.186 80.2541 30.0814C80.411 29.9768 80.5766 29.9244 80.7509 29.9244C80.9601 29.9244 81.1606 30.0029 81.3524 30.1598C81.5616 30.2993 81.7882 30.5259 82.0323 30.8397C82.259 31.1012 82.381 31.354 82.3984 31.5981C82.4333 31.8422 82.381 32.0775 82.2415 32.3042C82.1195 32.5308 81.9103 32.74 81.6139 32.9318C81.4047 33.141 81.0909 33.3589 80.6725 33.5856C80.2715 33.7948 79.8008 33.9778 79.2603 34.1347C78.7373 34.2916 78.1881 34.3701 77.6128 34.3701ZM77.1944 38.8158C76.7586 38.8158 76.3401 38.7111 75.9392 38.5019C75.5382 38.3102 75.3203 38.0748 75.2854 37.7959C75.268 37.5867 75.3377 37.3862 75.4946 37.1944C75.6689 37.0026 75.8084 36.8719 75.913 36.8021C76.0176 36.7324 76.1222 36.6975 76.2268 36.6975C76.3663 36.6975 76.5145 36.7498 76.6714 36.8544C76.8457 36.9765 77.0288 37.0375 77.2206 37.0375C77.4298 37.0375 77.6302 36.959 77.822 36.8021C78.0138 36.6627 78.1097 36.4535 78.1097 36.1745C78.1097 35.8956 78.0138 35.6776 77.822 35.5207C77.6302 35.3638 77.4298 35.2854 77.2206 35.2854C76.9765 35.2854 76.776 35.3464 76.6191 35.4684C76.4622 35.6079 76.314 35.6776 76.1745 35.6776C76.035 35.6776 75.9043 35.6253 75.7823 35.5207C75.6776 35.4161 75.5818 35.2854 75.4946 35.1285C75.4249 35.0064 75.3638 34.8931 75.3115 34.7885C75.2767 34.7013 75.268 34.6229 75.2854 34.5532C75.3028 34.3614 75.4074 34.187 75.5992 34.0301C75.8084 33.8732 76.0612 33.7512 76.3576 33.664C76.6539 33.5769 76.9416 33.5333 77.2206 33.5333C77.639 33.5333 78.0487 33.6379 78.4496 33.8471C78.8681 34.0563 79.208 34.3527 79.4695 34.7362C79.7485 35.1372 79.8879 35.6079 79.8879 36.1484C79.8879 36.6539 79.7659 37.1072 79.5218 37.5082C79.2778 37.9092 78.9465 38.223 78.5281 38.4496C78.1271 38.6937 77.6826 38.8158 77.1944 38.8158ZM95.3394 34.2655C94.8339 34.2655 94.459 34.1696 94.215 33.9778C93.9709 33.7861 93.8488 33.5246 93.8488 33.1933L94.0319 32.3303C93.8924 32.557 93.6571 32.8272 93.3258 33.141C92.9946 33.4374 92.5587 33.7076 92.0183 33.9517C91.4778 34.1783 90.8241 34.2916 90.057 34.2916C89.2376 34.2916 88.4618 34.126 87.7295 33.7948C87.0147 33.4461 86.3784 32.9754 85.8205 32.3826C85.2801 31.7724 84.8442 31.0838 84.513 30.3167C84.1992 29.5322 84.0423 28.6954 84.0423 27.8062C84.0423 26.952 84.1992 26.15 84.513 25.4003C84.8442 24.6333 85.2888 23.9533 85.8467 23.3606C86.4046 22.7678 87.0409 22.3058 87.7557 21.9746C88.4879 21.6259 89.255 21.4516 90.057 21.4516C90.7718 21.4516 91.3732 21.5474 91.8614 21.7392C92.367 21.931 92.7941 22.1751 93.1428 22.4714C93.4914 22.7504 93.7791 23.0468 94.0057 23.3606L93.8488 22.6022C93.8488 22.2187 93.9709 21.931 94.215 21.7392C94.459 21.53 94.8426 21.4254 95.3656 21.4254C95.8537 21.4254 96.2024 21.5039 96.4116 21.6608C96.6208 21.8002 96.7516 22.0007 96.8039 22.2622C96.8562 22.5063 96.8823 22.7853 96.8823 23.0991V32.6703C96.8823 32.9667 96.8562 33.2369 96.8039 33.481C96.7516 33.725 96.6121 33.9168 96.3855 34.0563C96.1763 34.1958 95.8276 34.2655 95.3394 34.2655ZM90.5277 31.232C91.1204 31.232 91.6522 31.0838 92.1229 30.7874C92.5936 30.4911 92.9684 30.0901 93.2474 29.5845C93.5437 29.0615 93.6919 28.4861 93.6919 27.8585C93.6919 27.1786 93.5437 26.5859 93.2474 26.0803C92.951 25.5747 92.5587 25.1824 92.0706 24.9035C91.5999 24.6071 91.0681 24.4589 90.4754 24.4589C89.8303 24.4589 89.255 24.6158 88.7494 24.9296C88.2438 25.226 87.8429 25.6357 87.5465 26.1587C87.2675 26.6643 87.1281 27.2396 87.1281 27.8847C87.1281 28.5123 87.2762 29.0789 87.5726 29.5845C87.869 30.0901 88.27 30.4911 88.7756 30.7874C89.2986 31.0838 89.8826 31.232 90.5277 31.232ZM101.023 34.2916C100.552 34.2916 100.204 34.2219 99.9769 34.0824C99.7677 33.943 99.637 33.7512 99.5847 33.5071C99.5324 33.263 99.5062 33.0015 99.5062 32.7226V22.9422C99.5062 22.6632 99.5324 22.4104 99.5847 22.1838C99.637 21.9571 99.7764 21.7741 100.003 21.6346C100.23 21.4951 100.587 21.4254 101.075 21.4254C101.581 21.4254 101.947 21.53 102.174 21.7392C102.418 21.9484 102.54 22.2797 102.54 22.733L102.304 23.4652C102.392 23.2734 102.54 23.0642 102.749 22.8376C102.958 22.6109 103.211 22.3843 103.507 22.1576C103.821 21.931 104.17 21.7479 104.553 21.6085C104.937 21.469 105.338 21.3993 105.756 21.3993C106.332 21.3993 106.855 21.4951 107.325 21.6869C107.813 21.8787 108.241 22.1576 108.607 22.5237C108.99 22.8899 109.322 23.3344 109.6 23.8574C109.897 23.4042 110.228 22.9945 110.594 22.6284C110.96 22.2448 111.387 21.9484 111.876 21.7392C112.364 21.5126 112.913 21.3993 113.523 21.3993C114.534 21.3993 115.38 21.6521 116.06 22.1576C116.757 22.6632 117.28 23.3867 117.629 24.3282C117.995 25.2522 118.178 26.3592 118.178 27.6493V32.7226C118.178 33.019 118.143 33.2892 118.073 33.5333C118.021 33.7599 117.882 33.943 117.655 34.0824C117.446 34.2219 117.097 34.2916 116.609 34.2916C116.121 34.2916 115.763 34.2132 115.537 34.0563C115.31 33.9168 115.171 33.7338 115.118 33.5071C115.066 33.263 115.04 32.9928 115.04 32.6964V27.6232C115.04 26.9781 114.961 26.4202 114.804 25.9495C114.648 25.4788 114.412 25.1127 114.098 24.8512C113.802 24.5897 113.41 24.4589 112.922 24.4589C112.399 24.4589 111.945 24.5897 111.562 24.8512C111.196 25.0953 110.908 25.4526 110.699 25.9234C110.49 26.3941 110.385 26.9694 110.385 27.6493V32.7487C110.385 33.0451 110.341 33.3241 110.254 33.5856C110.167 33.8296 109.993 34.0127 109.731 34.1347C109.487 34.2742 109.13 34.3265 108.659 34.2916C108.223 34.2742 107.901 34.187 107.691 34.0301C107.5 33.8732 107.378 33.6815 107.325 33.4548C107.29 33.2107 107.273 32.958 107.273 32.6964V27.6232C107.273 26.9781 107.195 26.4202 107.038 25.9495C106.881 25.4614 106.645 25.0953 106.332 24.8512C106.035 24.5897 105.634 24.4589 105.129 24.4589C104.588 24.4589 104.126 24.5984 103.743 24.8773C103.377 25.1563 103.098 25.5311 102.906 26.0018C102.714 26.4725 102.618 27.013 102.618 27.6232V32.7487C102.618 33.0277 102.583 33.2892 102.514 33.5333C102.461 33.7773 102.322 33.9604 102.095 34.0824C101.886 34.2219 101.529 34.2916 101.023 34.2916Z" fill="#212121"/>
<path d="M66.2604 50.613C65.7954 50.613 65.364 50.495 64.9663 50.2591C64.5754 50.0165 64.2586 49.6896 64.016 49.2785C63.7801 48.8606 63.6622 48.3922 63.6622 47.8732C63.6622 47.4149 63.7565 46.9768 63.9452 46.5589C64.134 46.141 64.3901 45.7703 64.7136 45.4468C65.0371 45.1165 65.4044 44.857 65.8156 44.6683C66.2335 44.4796 66.6682 44.3852 67.1198 44.3852C67.5579 44.3852 67.9623 44.4762 68.333 44.6582C68.7037 44.8334 69.0137 45.0794 69.2631 45.3962L70.4055 40.8265H71.4974L69.071 50.5321H68.06L68.2723 49.7233C68.0027 49.9929 67.696 50.2086 67.3523 50.3703C67.0086 50.5321 66.6446 50.613 66.2604 50.613ZM66.5637 49.6222C66.9681 49.6222 67.3456 49.511 67.696 49.2886C68.0533 49.0594 68.3431 48.7629 68.5655 48.3989C68.7879 48.0349 68.8991 47.6474 68.8991 47.2362C68.8991 46.8992 68.8216 46.5926 68.6666 46.3162C68.5183 46.0332 68.3094 45.8074 68.0398 45.6389C67.7769 45.4636 67.4669 45.376 67.1097 45.376C66.7053 45.376 66.3244 45.4906 65.9672 45.7197C65.6168 45.9422 65.3303 46.2354 65.1079 46.5993C64.8855 46.9565 64.7743 47.3441 64.7743 47.762C64.7743 48.0922 64.8484 48.3989 64.9967 48.682C65.1517 48.9651 65.364 49.1942 65.6336 49.3695C65.9032 49.538 66.2132 49.6222 66.5637 49.6222ZM74.241 50.6534C73.6883 50.6534 73.1929 50.5321 72.7548 50.2895C72.3167 50.0468 71.9696 49.7166 71.7135 49.2987C71.4641 48.8741 71.3394 48.3989 71.3394 47.8732C71.3394 47.4081 71.4372 46.9633 71.6326 46.5387C71.8281 46.114 72.0943 45.74 72.4313 45.4164C72.775 45.0862 73.1693 44.8267 73.6142 44.638C74.059 44.4425 74.5308 44.3448 75.0296 44.3448C75.6497 44.3448 76.1686 44.4897 76.5865 44.7795C77.0044 45.0626 77.2976 45.4333 77.4661 45.8916C77.6346 46.3499 77.6548 46.8386 77.5267 47.3576L77.4155 47.8024H73.4524C73.2839 47.8024 73.1154 47.7957 72.9469 47.7822C72.7852 47.7687 72.62 47.7519 72.4515 47.7316C72.4583 48.2641 72.6335 48.7123 72.9772 49.0763C73.321 49.4402 73.7726 49.6222 74.332 49.6222C74.7566 49.6222 75.1475 49.5144 75.5047 49.2987C75.8687 49.083 76.1552 48.8067 76.3641 48.4697V49.9356C76.0675 50.158 75.7373 50.3333 75.3733 50.4613C75.0161 50.5894 74.6387 50.6534 74.241 50.6534ZM72.5122 46.9835C72.9098 46.9228 73.2974 46.8925 73.6748 46.8925H75.6867C75.835 46.8925 75.9799 46.8992 76.1215 46.9127C76.263 46.9195 76.4045 46.9296 76.5461 46.9431C76.5663 46.4847 76.418 46.1006 76.1012 45.7905C75.7912 45.4737 75.3699 45.3153 74.8375 45.3153C74.2983 45.3153 73.8164 45.4771 73.3918 45.8006C72.9671 46.1174 72.6739 46.5117 72.5122 46.9835ZM82.3407 50.5321L80.2782 46.9532L82.9473 44.4661H84.3121L81.5521 47.0239L83.5842 50.5321H82.3407ZM78.1855 50.5321L80.6119 40.8265H81.7038L79.2774 50.5321H78.1855ZM87.1973 50.6534C86.6716 50.6534 86.1964 50.5321 85.7718 50.2895C85.3471 50.0468 85.0068 49.7166 84.7507 49.2987C84.5013 48.8741 84.3766 48.3989 84.3766 47.8732C84.3766 47.4081 84.4709 46.9633 84.6597 46.5387C84.8551 46.114 85.118 45.74 85.4482 45.4164C85.7852 45.0862 86.1661 44.8267 86.5907 44.638C87.022 44.4425 87.4736 44.3448 87.9454 44.3448C88.4711 44.3448 88.9463 44.4661 89.3709 44.7087C89.7955 44.9514 90.1325 45.2816 90.3819 45.6995C90.638 46.1174 90.7661 46.5926 90.7661 47.125C90.7661 47.5901 90.6684 48.0349 90.4729 48.4596C90.2842 48.8842 90.0213 49.2616 89.6843 49.5919C89.3541 49.9154 88.9733 50.1749 88.5419 50.3703C88.1173 50.5591 87.6691 50.6534 87.1973 50.6534ZM87.3085 49.6222C87.7196 49.6222 88.1004 49.511 88.4509 49.2886C88.8081 49.0662 89.098 48.773 89.3204 48.409C89.5428 48.045 89.654 47.6541 89.654 47.2362C89.654 46.724 89.4855 46.2859 89.1485 45.9219C88.8115 45.558 88.3734 45.376 87.8342 45.376C87.4298 45.376 87.049 45.4872 86.6918 45.7096C86.3346 45.9321 86.0447 46.2252 85.8223 46.5892C85.5999 46.9532 85.4887 47.3441 85.4887 47.762C85.4887 48.2742 85.6572 48.7123 85.9942 49.0763C86.3379 49.4402 86.776 49.6222 87.3085 49.6222ZM91.5212 50.5321L93.0377 44.4661H94.0487L93.7757 45.5782C94.079 45.221 94.4329 44.9379 94.8373 44.729C95.2484 44.5133 95.6966 44.4054 96.1819 44.4054V45.4973C96.0606 45.4569 95.9157 45.4367 95.7472 45.4367C95.1945 45.4367 94.7025 45.6254 94.2711 46.0028C93.8465 46.3735 93.5365 46.9397 93.341 47.7013L92.6131 50.5321H91.5212ZM99.099 50.5321L101.525 40.8265H102.617L100.191 50.5321H99.099ZM102.127 50.5321L103.644 44.4661H104.736L103.219 50.5321H102.127ZM104.564 43.3742C104.382 43.3742 104.227 43.3136 104.099 43.1922C103.977 43.0709 103.917 42.9193 103.917 42.7373C103.917 42.5216 103.998 42.3329 104.159 42.1711C104.328 42.0026 104.517 41.9184 104.725 41.9184C104.907 41.9184 105.059 41.979 105.18 42.1004C105.308 42.2217 105.373 42.3733 105.373 42.5553C105.373 42.771 105.292 42.9631 105.13 43.1316C104.968 43.2933 104.779 43.3742 104.564 43.3742ZM105.155 50.5321L106.672 44.4661H107.683L107.471 45.3255C107.76 44.9952 108.087 44.7492 108.451 44.5874C108.815 44.4257 109.183 44.3448 109.553 44.3448C110.099 44.3448 110.534 44.4796 110.858 44.7492C111.181 45.012 111.39 45.3625 111.484 45.8006C111.585 46.232 111.572 46.7038 111.444 47.216L110.615 50.5321H109.523L110.342 47.2362C110.477 46.697 110.45 46.232 110.261 45.8411C110.079 45.4501 109.718 45.2547 109.179 45.2547C108.755 45.2547 108.343 45.4097 107.946 45.7197C107.555 46.023 107.285 46.4645 107.137 47.0442L106.247 50.5321H105.155ZM115.67 50.6534C115.117 50.6534 114.622 50.5321 114.184 50.2895C113.746 50.0468 113.398 49.7166 113.142 49.2987C112.893 48.8741 112.768 48.3989 112.768 47.8732C112.768 47.4081 112.866 46.9633 113.061 46.5387C113.257 46.114 113.523 45.74 113.86 45.4164C114.204 45.0862 114.598 44.8267 115.043 44.638C115.488 44.4425 115.96 44.3448 116.458 44.3448C117.079 44.3448 117.598 44.4897 118.015 44.7795C118.433 45.0626 118.726 45.4333 118.895 45.8916C119.063 46.3499 119.084 46.8386 118.956 47.3576L118.844 47.8024H114.881C114.713 47.8024 114.544 47.7957 114.376 47.7822C114.214 47.7687 114.049 47.7519 113.88 47.7316C113.887 48.2641 114.062 48.7123 114.406 49.0763C114.75 49.4402 115.201 49.6222 115.761 49.6222C116.185 49.6222 116.576 49.5144 116.934 49.2987C117.298 49.083 117.584 48.8067 117.793 48.4697V49.9356C117.496 50.158 117.166 50.3333 116.802 50.4613C116.445 50.5894 116.068 50.6534 115.67 50.6534ZM113.941 46.9835C114.339 46.9228 114.726 46.8925 115.104 46.8925H117.116C117.264 46.8925 117.409 46.8992 117.55 46.9127C117.692 46.9195 117.833 46.9296 117.975 46.9431C117.995 46.4847 117.847 46.1006 117.53 45.7905C117.22 45.4737 116.799 45.3153 116.266 45.3153C115.727 45.3153 115.245 45.4771 114.821 45.8006C114.396 46.1174 114.103 46.5117 113.941 46.9835Z" fill="#212121"/>
</svg>
