<svg width="10" height="10" viewBox="0 0 10 10" fill="none" xmlns="http://www.w3.org/2000/svg">
<path fill-rule="evenodd" clip-rule="evenodd" d="M9.47108 0.528596C9.73143 0.788946 9.73143 1.21106 9.47108 1.47141L1.47108 9.47141C1.21073 9.73176 0.788619 9.73176 0.52827 9.47141C0.26792 9.21106 0.26792 8.78895 0.52827 8.5286L8.52827 0.528596C8.78862 0.268247 9.21073 0.268247 9.47108 0.528596Z" fill="#424242"/>
<path fill-rule="evenodd" clip-rule="evenodd" d="M0.52827 0.528596C0.788619 0.268247 1.21073 0.268247 1.47108 0.528596L9.47108 8.5286C9.73143 8.78895 9.73143 9.21106 9.47108 9.47141C9.21073 9.73176 8.78862 9.73176 8.52827 9.47141L0.52827 1.47141C0.26792 1.21106 0.26792 0.788946 0.52827 0.528596Z" fill="#424242"/>
</svg>
