<svg width="22" height="22" viewBox="0 0 22 22" fill="none" xmlns="http://www.w3.org/2000/svg">
<path fill-rule="evenodd" clip-rule="evenodd" d="M6 1.625C3.58375 1.625 1.625 3.58375 1.625 6V16C1.625 18.4162 3.58375 20.375 6 20.375H16C18.4162 20.375 20.375 18.4162 20.375 16V6C20.375 3.58375 18.4162 1.625 16 1.625H6ZM0.375 6C0.375 2.8934 2.8934 0.375 6 0.375H16C19.1066 0.375 21.625 2.8934 21.625 6V16C21.625 19.1066 19.1066 21.625 16 21.625H6C2.8934 21.625 0.375 19.1066 0.375 16V6Z" fill="#757575"/>
<path fill-rule="evenodd" clip-rule="evenodd" d="M11.5383 7.61824C10.8361 7.51411 10.119 7.63405 9.48884 7.96101C8.85873 8.28796 8.34776 8.80527 8.0286 9.43937C7.70944 10.0735 7.59835 10.7921 7.71113 11.4929C7.82391 12.1938 8.15481 12.8413 8.65678 13.3432C9.15875 13.8452 9.80621 14.1761 10.5071 14.2889C11.2079 14.4016 11.9265 14.2906 12.5606 13.9714C13.1947 13.6522 13.712 13.1413 14.039 12.5112C14.3659 11.881 14.4859 11.1639 14.3818 10.4617C14.2755 9.7454 13.9418 9.08227 13.4298 8.57025C12.9177 8.05823 12.2546 7.72446 11.5383 7.61824ZM8.91313 6.85148C9.77661 6.40343 10.7594 6.23907 11.7217 6.38176C12.7032 6.52731 13.612 6.9847 14.3136 7.68637C15.0153 8.38803 15.4727 9.29676 15.6182 10.2783C15.7609 11.2406 15.5966 12.2234 15.1485 13.0869C14.7005 13.9504 13.9916 14.6506 13.1226 15.0879C12.2537 15.5253 11.2689 15.6775 10.3085 15.523C9.34804 15.3684 8.46078 14.915 7.7729 14.2271C7.08502 13.5392 6.63156 12.652 6.47701 11.6915C6.32246 10.7311 6.47469 9.74633 6.91205 8.87738C7.34942 8.00844 8.04964 7.29952 8.91313 6.85148Z" fill="#757575"/>
<path fill-rule="evenodd" clip-rule="evenodd" d="M15.875 5.5C15.875 5.15482 16.1548 4.875 16.5 4.875H16.51C16.8552 4.875 17.135 5.15482 17.135 5.5C17.135 5.84518 16.8552 6.125 16.51 6.125H16.5C16.1548 6.125 15.875 5.84518 15.875 5.5Z" fill="#757575"/>
</svg>
