<svg width="24" height="24" viewBox="0 0 24 24" fill="none" xmlns="http://www.w3.org/2000/svg">
<path fill-rule="evenodd" clip-rule="evenodd" d="M16 8.625C14.5745 8.625 13.2073 9.19129 12.1993 10.1993C11.1913 11.2073 10.625 12.5745 10.625 14V20.375H13.375V14C13.375 13.3038 13.6516 12.6361 14.1438 12.1438C14.6361 11.6516 15.3038 11.375 16 11.375C16.6962 11.375 17.3639 11.6516 17.8562 12.1438C18.3484 12.6361 18.625 13.3038 18.625 14V20.375H21.375V14C21.375 12.5745 20.8087 11.2073 19.8007 10.1993C18.7927 9.19129 17.4255 8.625 16 8.625ZM11.3154 9.31542C12.5578 8.07299 14.2429 7.375 16 7.375C17.7571 7.375 19.4422 8.07299 20.6846 9.31542C21.927 10.5578 22.625 12.2429 22.625 14V21C22.625 21.3452 22.3452 21.625 22 21.625H18C17.6548 21.625 17.375 21.3452 17.375 21V14C17.375 13.6353 17.2301 13.2856 16.9723 13.0277C16.7144 12.7699 16.3647 12.625 16 12.625C15.6353 12.625 15.2856 12.7699 15.0277 13.0277C14.7699 13.2856 14.625 13.6353 14.625 14V21C14.625 21.3452 14.3452 21.625 14 21.625H10C9.65482 21.625 9.375 21.3452 9.375 21V14C9.375 12.2429 10.073 10.5578 11.3154 9.31542Z" fill="#757575"/>
<path fill-rule="evenodd" clip-rule="evenodd" d="M1.375 9C1.375 8.65482 1.65482 8.375 2 8.375H6C6.34518 8.375 6.625 8.65482 6.625 9V21C6.625 21.3452 6.34518 21.625 6 21.625H2C1.65482 21.625 1.375 21.3452 1.375 21V9ZM2.625 9.625V20.375H5.375V9.625H2.625Z" fill="#757575"/>
<path fill-rule="evenodd" clip-rule="evenodd" d="M4 2.625C3.24061 2.625 2.625 3.24061 2.625 4C2.625 4.75939 3.24061 5.375 4 5.375C4.75939 5.375 5.375 4.75939 5.375 4C5.375 3.24061 4.75939 2.625 4 2.625ZM1.375 4C1.375 2.55025 2.55025 1.375 4 1.375C5.44975 1.375 6.625 2.55025 6.625 4C6.625 5.44975 5.44975 6.625 4 6.625C2.55025 6.625 1.375 5.44975 1.375 4Z" fill="#757575"/>
</svg>
